# Blender 3.6.0
# www.blender.org
mtllib SkyboxCube.mtl
o Cube
v 335.433594 335.433594 -335.433594
v 335.433594 -335.433594 -335.433594
v 335.433594 335.433594 335.433594
v 335.433594 -335.433594 335.433594
v -335.433594 335.433594 -335.433594
v -335.433594 -335.433594 -335.433594
v -335.433594 335.433594 335.433594
v -335.433594 -335.433594 335.433594
vn -0.5774 -0.5774 0.5774
vn -0.5774 -0.5774 -0.5774
vn 0.5774 -0.5774 -0.5774
vn 0.5774 -0.5774 0.5774
vn -0.5774 0.5774 -0.5774
vn 0.5774 0.5774 -0.5774
vn 0.5774 0.5774 0.5774
vn -0.5774 0.5774 0.5774
vt 0.498065 0.666663
vt 0.250069 0.666529
vt 0.250166 0.999867
vt 0.498272 1.000052
vt 0.249443 0.333722
vt 0.000250 0.334742
vt 0.000095 0.666228
vt 0.250211 0.666028
vt 0.998687 0.335022
vt 0.750958 0.335593
vt 0.751387 0.663717
vt 0.999116 0.663146
vt 0.250500 0.002922
vt 0.250500 0.333307
vt 0.498039 0.333307
vt 0.498039 0.002922
vt 0.502024 0.334819
vt 0.251538 0.333349
vt 0.250437 0.666679
vt 0.500069 0.666847
vt 0.750000 0.335535
vt 0.500000 0.335535
vt 0.500049 0.664798
vt 0.750000 0.664662
s 1
usemtl Material
f 1/1/1 3/2/2 7/3/3 5/4/4
f 4/5/5 8/6/6 7/7/3 3/8/2
f 8/9/6 6/10/7 5/11/4 7/12/3
f 6/13/7 8/14/6 4/15/5 2/16/8
f 2/17/8 4/18/5 3/19/2 1/20/1
f 6/21/7 2/22/8 1/23/1 5/24/4
