# Blender 4.1.1
# www.blender.org
mtllib skybox2.mtl
o Cube
v 1.000000 1.000000 -1.000000
v 1.000000 -1.000000 -1.000000
v 1.000000 1.000000 1.000000
v 1.000000 -1.000000 1.000000
v -1.000000 1.000000 -1.000000
v -1.000000 -1.000000 -1.000000
v -1.000000 1.000000 1.000000
v -1.000000 -1.000000 1.000000
vn -0.0000 -1.0000 -0.0000
vn -0.0000 -0.0000 -1.0000
vn 1.0000 -0.0000 -0.0000
vn -0.0000 1.0000 -0.0000
vn -1.0000 -0.0000 -0.0000
vn -0.0000 -0.0000 1.0000
vt 0.335117 0.499528
vt 0.334780 0.250126
vt 0.001062 0.250285
vt 0.001400 0.499687
vt 0.664315 0.249874
vt 0.664276 0.001298
vt 0.334442 0.001550
vt 0.664378 0.998449
vt 0.664362 0.749873
vt 0.335455 0.750126
vt 0.335792 0.998701
vt 0.999416 0.499117
vt 0.999078 0.249715
vt 0.664276 0.499275
s 0
usemtl Material.001
f 1/1/1 3/2/1 7/3/1 5/4/1
f 4/5/2 8/6/2 7/7/2 3/2/2
f 8/8/3 6/9/3 5/10/3 7/11/3
f 6/12/4 8/13/4 4/5/4 2/14/4
f 2/14/5 4/5/5 3/2/5 1/1/5
f 6/9/6 2/14/6 1/1/6 5/10/6
