# Blender 3.6.0
# www.blender.org
mtllib xoxooxo.mtl
o Cube
v 1.000000 1.000000 -1.000000
v 1.000000 -1.000000 -1.000000
v 1.000000 1.000000 1.649578
v 1.000000 -1.000000 1.000000
v -1.000000 1.000000 -1.000000
v -1.000000 -1.000000 -1.000000
v -1.000000 1.000000 1.000000
v -1.000000 -1.000000 1.649578
v 0.649126 0.000000 -1.000000
v 0.649126 0.000000 1.000000
v -0.005293 -1.000000 -1.000000
v -0.005293 -1.000000 1.000000
v -0.005293 0.005293 -1.642307
v 0.825491 0.502646 -1.642307
v 0.825491 0.502646 1.000000
v -1.000000 -1.000000 0.324789
v 1.000000 1.000000 0.324789
v -1.000000 1.000000 0.000000
v 1.000000 -1.000000 0.000000
v 0.649126 0.000000 0.000000
v 0.825491 0.502646 -0.321154
v -0.005293 -1.000000 0.000000
v -1.000000 0.000000 1.324789
v -1.000000 0.000000 -1.000000
v -0.005293 -0.497354 -1.321154
v -1.889258 0.000000 0.162394
v 0.824563 -0.500000 -1.000000
v -1.000000 0.500000 1.162394
v 0.824563 -0.500000 1.000000
v -1.000000 -0.500000 -1.000000
v 0.000000 1.000000 1.324789
v 0.497354 -1.000000 1.000000
v 0.000000 1.000000 -1.000000
v 0.000000 0.000000 1.649578
v 0.737309 0.251323 -1.321154
v 0.737309 0.251323 1.000000
v 0.497354 -1.000000 -1.000000
v 0.497354 -0.497354 -1.321154
v 0.410099 0.253970 -1.642307
v -0.005293 -0.748677 -1.160577
v 0.410099 -0.248677 1.000000
v 0.737309 0.251323 -0.160577
v 0.824563 -0.500000 0.000000
v 0.497354 -1.000000 0.000000
v -1.000000 -0.500000 0.243592
v 0.000000 1.000000 0.162394
v -1.000000 -0.500000 1.487183
v -1.000000 0.500000 -1.000000
v -0.005293 -0.246030 -1.481730
v -1.889258 0.500000 0.081197
v 0.617331 -0.123015 -1.321154
v -0.500000 0.250000 1.405986
v 0.246030 -0.623015 -1.240865
v 0.617331 -0.374338 1.000000
v -1.000000 -1.000000 0.987183
v 1.000000 1.000000 0.987183
v 0.649126 0.000000 0.500000
v 0.825491 0.502646 0.339423
v -0.005293 -1.000000 0.500000
v -1.000000 1.000000 0.500000
v 1.000000 -1.000000 0.500000
v -1.444629 0.000000 0.743592
v -1.000000 -0.500000 0.865387
v -1.444629 0.500000 0.621796
v 0.737309 0.251323 0.419712
v 0.824563 -0.500000 0.500000
v 0.497354 -1.000000 0.500000
v 0.000000 1.000000 0.743592
v -1.499885 1.710148 0.713592
v -1.499885 1.710148 0.213592
v -2.389143 1.210148 0.294789
v -1.944514 1.210148 0.835388
v -1.800344 1.675848 0.964161
v -1.602193 2.001281 0.640387
v -2.543449 2.053299 0.242011
v -2.364143 1.497687 0.628128
v -1.000000 0.750000 1.081197
v -1.000000 -0.750000 -1.000000
v 0.748677 -1.000000 1.000000
v 0.500000 1.000000 -1.000000
v 0.500000 0.500000 1.649578
v 0.693217 0.125662 -1.160577
v 0.693217 0.125662 1.000000
v -0.005293 -0.874338 -1.080288
v 0.617795 0.126985 1.000000
v 0.693217 0.125662 -0.080288
v -1.000000 -0.750000 0.284190
v 0.500000 1.000000 0.243592
v 0.736844 -0.250000 -1.000000
v 0.736844 -0.250000 1.000000
v 0.500000 1.000000 1.487183
v 0.748677 -1.000000 -1.000000
v 0.748677 -0.748677 -1.160577
v 0.617795 0.378308 -1.642307
v 0.736844 -0.250000 0.000000
v 0.748677 -1.000000 0.000000
v -1.000000 -0.750000 1.568380
v -1.000000 0.750000 -1.000000
v -0.005293 -0.120369 -1.562019
v -1.444629 0.750000 0.040599
v 0.720947 -0.311508 -1.160577
v 0.677320 0.064154 -1.321154
v -0.250000 0.625000 1.365387
v -0.250000 0.125000 1.527782
v 0.371692 -0.560184 -1.281009
v 0.371692 -0.811508 -1.120433
v 0.720947 -0.437169 1.000000
v 0.677320 -0.061508 1.000000
v 0.500000 1.000000 0.865387
v 0.693217 0.125662 0.459856
v -1.000000 -0.750000 0.926285
v -1.222314 0.750000 0.560898
v 0.736844 -0.250000 0.500000
v 0.748677 -1.000000 0.500000
v -1.944514 1.460148 0.254190
v -1.722199 1.460148 0.774490
v -2.072821 2.027290 0.441199
v -2.082244 1.586767 0.796145
v 0.707082 -0.155754 1.000000
v 0.560184 -0.780092 -1.140505
v 0.125000 0.562500 1.507483
v 0.707082 -0.092923 -1.160577
v -0.275585 0.617807 1.359414
v -0.486000 0.221747 1.419709
v -0.221304 0.125915 1.536805
v 0.107889 0.597031 1.490710
v -0.034001 0.511254 1.162467
v -0.453526 0.341852 1.153785
v -0.361366 0.164853 1.384300
v 0.186079 0.332355 1.452780
vn -0.0000 1.0000 -0.0000
vn -0.0000 -0.0000 1.0000
vn -0.7439 0.6483 -0.1621
vn -0.0000 -1.0000 -0.0000
vn 0.9436 -0.3311 -0.0000
vn -0.0000 -0.5384 -0.8427
vn -0.2951 0.2951 0.9087
vn 0.9524 0.2065 0.2243
vn 0.9436 0.3311 -0.0000
vn -0.1318 0.7503 -0.6478
vn -0.0525 -0.2087 -0.9766
vn 0.5607 -0.4531 0.6930
vn 0.3228 -0.0569 0.9448
vn -0.6062 -0.7631 0.2240
vn -0.4650 -0.1850 -0.8657
vn -0.7104 -0.6530 -0.2626
vn -1.0000 -0.0000 -0.0000
vn -0.5639 -0.1726 -0.8076
vn -0.7775 0.1251 0.6163
vn 0.6620 -0.5350 0.5250
vn -0.3006 -0.1993 -0.9327
vn -0.0949 0.5404 -0.8361
vn 0.7669 0.1663 -0.6199
vn 0.3794 -0.3261 -0.8659
vn 0.6674 -0.5735 -0.4751
vn 0.2951 -0.2952 -0.9087
vn -0.7827 -0.0504 -0.6204
vn -0.7717 0.1739 0.6117
vn -0.8937 -0.3035 0.3303
vn -0.8757 0.4436 0.1908
vn -0.8605 -0.3521 0.3682
vn 0.8177 0.5756 -0.0000
vn -0.1809 0.1643 -0.9697
vn -0.6224 -0.5921 0.5119
vn -0.3701 0.6703 0.6433
vn 0.8492 0.3884 0.3577
vn 0.2348 -0.5925 0.7706
vn 0.1405 0.1217 -0.9826
vn -0.0013 0.5815 -0.8136
vn -0.2211 0.0207 0.9750
vn -0.4139 0.4969 0.7628
vn -0.7488 0.4667 0.4707
vn -0.0000 -0.0000 -1.0000
vn 0.5320 -0.4571 -0.7128
vn 0.6198 -0.0705 -0.7816
vn 0.7253 -0.5862 0.3610
vn -0.6189 -0.1642 -0.7681
vn -0.1557 -0.2065 -0.9660
vn -0.1153 0.6561 -0.7459
vn 0.9622 0.2086 -0.1752
vn 0.8764 -0.0996 -0.4712
vn 0.9921 -0.1128 -0.0550
vn -0.6904 0.5787 -0.4340
vn -0.5369 -0.7300 0.4229
vn 0.2951 -0.2951 -0.9087
vn -0.2951 0.6972 0.6533
vn 0.4550 0.8649 0.2118
vn -0.4534 0.6440 -0.6161
vn 0.6396 -0.6798 0.3588
vt 0.590406 0.121729
vt 0.456045 0.154458
vt 0.456045 0.087278
vt 0.590406 0.043639
vt 0.910453 0.234033
vt 0.985647 0.239265
vt 0.984685 0.272874
vt 0.918462 0.248060
vt 0.396304 0.216184
vt 0.456045 0.221639
vt 0.456045 0.355999
vt 0.033768 0.600460
vt 0.000000 0.600460
vt 0.000000 0.533279
vt 0.033768 0.533279
vt 0.532609 0.708294
vt 0.585841 0.793126
vt 0.585841 0.882035
vt 0.532609 0.796959
vt 0.909413 0.875084
vt 0.923061 0.906739
vt 0.868470 0.894137
vt 0.868470 0.875134
vt 0.827979 0.074058
vt 0.793575 0.003418
vt 0.862383 0.006837
vt 0.931192 0.010255
vt 0.464319 0.508979
vt 0.492259 0.508561
vt 0.478809 0.530648
vt 0.443248 0.530721
vt 0.443248 0.732056
vt 0.478809 0.731983
vt 0.478809 0.799094
vt 0.443248 0.799167
vt 0.657586 0.355999
vt 0.724767 0.355999
vt 0.701320 0.442300
vt 0.673413 0.442300
vt 0.624434 0.682226
vt 0.655897 0.791695
vt 0.637011 0.794654
vt 0.595529 0.698709
vt 0.505709 0.720139
vt 0.505709 0.798027
vt 0.268722 0.535002
vt 0.135072 0.600460
vt 0.135072 0.533279
vt 0.268722 0.446002
vt 0.862383 0.144697
vt 1.000000 0.013673
vt 0.988534 0.138436
vt 0.886425 0.191953
vt 0.268722 0.802001
vt 0.135072 0.802001
vt 0.135072 0.667640
vt 0.268722 0.624001
vt 0.505709 0.486474
vt 0.532609 0.442300
vt 0.532609 0.619630
vt 0.505709 0.642250
vt 0.478809 0.664871
vt 0.443248 0.664944
vt 0.585841 0.526400
vt 0.585841 0.704217
vt 0.033768 0.802001
vt 0.000000 0.802001
vt 0.000000 0.667640
vt 0.033768 0.667640
vt 0.944945 0.694798
vt 0.900275 0.689282
vt 0.884801 0.578250
vt 0.929471 0.583766
vt 0.590406 0.355999
vt 0.590406 0.199819
vt 0.094760 0.380492
vt 0.124364 0.301742
vt 0.217176 0.288502
vt 0.173744 0.380492
vt 0.768958 0.599806
vt 0.750331 0.776901
vt 0.712557 0.782819
vt 0.711149 0.632774
vt 0.585841 0.583235
vt 0.610974 0.469881
vt 0.653339 0.665742
vt 0.171013 0.413247
vt 0.331712 0.380492
vt 0.334138 0.413247
vt 0.797863 0.583322
vt 0.769217 0.773943
vt 0.089450 0.413247
vt 0.657586 0.188909
vt 0.134983 0.236233
vt 0.222638 0.222993
vt 0.067536 0.802001
vt 0.067536 0.667640
vt 0.336564 0.530939
vt 0.407687 0.530794
vt 0.407687 0.665017
vt 0.336564 0.665163
vt 0.492259 0.653561
vt 0.835502 0.342901
vt 0.835502 0.275720
vt 0.922780 0.330822
vt 0.922780 0.358728
vt 0.492259 0.726061
vt 0.492259 0.798561
vt 0.674784 0.788737
vt 0.826768 0.566839
vt 0.868470 0.663294
vt 0.834179 0.794654
vt 0.788104 0.770984
vt 0.336564 0.732274
vt 0.407687 0.732129
vt 0.407687 0.799240
vt 0.336564 0.799386
vt 0.950356 0.875033
vt 0.965964 0.819290
vt 0.979893 0.851982
vt 0.977651 0.919340
vt 0.868470 0.742112
vt 0.924176 0.721213
vt 0.952034 0.786598
vt 0.923061 0.830726
vt 0.952028 0.710763
vt 0.979881 0.700314
vt 0.981008 0.742469
vt 0.966521 0.764534
vt 0.845181 0.109377
vt 0.965596 0.011964
vt 0.776373 0.105959
vt 0.759171 0.001709
vt 0.868470 0.780118
vt 0.895765 0.843429
vt 0.868470 0.856131
vt 0.868470 0.818125
vt 0.868470 0.761115
vt 0.909413 0.837077
vt 0.929884 0.875058
vt 0.950356 0.913040
vt 0.067536 0.600460
vt 0.067536 0.533279
vt 0.673191 0.442300
vt 0.872856 0.231417
vt 0.885351 0.235652
vt 0.835371 0.218711
vt 0.902444 0.220006
vt 0.860361 0.227182
vt 0.986609 0.205655
vt 0.657586 0.105364
vt 0.657586 0.021819
vt 0.031552 0.314982
vt 0.047328 0.249472
vt 0.007888 0.413247
vt 0.015776 0.380492
vt 0.055216 0.216717
vt 0.063104 0.183963
vt 0.126617 0.183963
vt 0.130800 0.210098
vt 0.209959 0.115064
vt 0.122304 0.128304
vt 0.163759 0.078135
vt 0.215070 0.000000
vt 0.671598 0.941196
vt 0.612172 0.972381
vt 0.585841 0.857911
vt 0.645267 0.826726
vt 0.728839 0.920561
vt 0.671598 0.914629
vt 0.671598 0.794654
vt 0.728839 0.800586
vt 0.953494 0.539246
vt 0.917372 0.558849
vt 0.868470 0.539205
vt 0.912788 0.490753
vt 0.617246 0.794654
vt 0.671598 0.800710
vt 0.764572 0.344646
vt 0.724767 0.299271
vt 0.835502 0.275720
vt 0.835502 0.343041
vt 0.804377 0.390020
vt 0.835502 0.410362
vt 0.974141 0.589281
vt 0.989615 0.519644
vt 0.957106 0.442300
vt 0.786081 0.926492
vt 0.786081 0.806518
vt -0.000000 0.446002
vt 0.084141 0.446002
vt 0.724767 0.178000
vt 0.724767 0.089000
vt 0.724767 0.000000
vt 0.784317 0.245470
vt 0.818279 0.234357
vt 0.835259 0.228801
vt 0.852240 0.223245
vt 0.724767 0.137860
vt 0.724767 -0.000000
vt 0.793575 0.210209
vt 0.784974 0.158084
vt 0.724767 0.275720
vt 0.724767 0.206790
vt 0.835502 0.410081
vt 0.922780 0.386634
vt 0.168282 0.446002
vt 0.336564 0.446002
vt 0.989615 0.700314
vt 0.645507 0.442300
vt 0.436379 0.509397
vt 0.465072 0.488000
vt 0.485391 0.487237
vt 0.336564 0.210729
s 0
usemtl Material
f 68/1/1 60/2/1 7/3/1 31/4/1
f 107/5/2 79/6/2 4/7/2 29/8/2
f 100/9/3 18/10/3 5/11/3 98/11/3
f 114/12/4 61/13/4 4/14/4 79/15/4
f 58/16/5 56/17/5 3/18/5 15/19/5
f 106/20/6 37/21/6 11/22/6 84/23/6
f 52/24/7 28/25/7 23/26/7 47/27/7
f 122/28/8 82/29/8 9/30/8 89/31/8
f 113/32/9 57/33/9 10/34/9 90/35/9
f 80/36/10 1/37/10 14/38/10 94/39/10
f 78/40/11 84/41/11 11/42/11 6/43/11
f 65/44/5 58/16/5 15/19/5 36/45/5
f 55/46/4 59/47/4 12/48/4 8/49/4
f 34/50/12 8/51/12 12/52/12 41/53/12
f 6/54/4 11/55/4 22/56/4 16/57/4
f 35/58/5 14/59/5 21/60/5 42/61/5
f 89/31/9 9/30/9 20/62/9 95/63/9
f 14/59/5 1/64/5 17/65/5 21/60/5
f 92/66/4 2/67/4 19/68/4 96/69/4
f 112/70/13 60/71/13 69/72/13 116/73/13
f 33/74/1 5/11/1 18/10/1 46/75/1
f 63/76/14 62/77/14 26/78/14 45/79/14
f 48/80/15 49/81/15 25/82/15 24/83/15
f 45/84/16 26/85/16 24/83/16 30/86/16
f 87/87/17 45/79/17 30/88/17 78/89/17
f 98/90/18 99/91/18 49/81/18 48/80/18
f 111/92/17 63/76/17 45/79/17 87/87/17
f 80/36/1 33/74/1 46/75/1 88/93/1
f 62/77/19 64/94/19 50/95/19 26/78/19
f 11/55/4 37/96/4 44/97/4 22/56/4
f 2/98/9 27/99/9 43/100/9 19/101/9
f 82/29/5 35/58/5 42/61/5 86/102/5
f 81/103/20 34/104/20 41/105/20 85/106/20
f 110/107/5 65/44/5 36/45/5 83/108/5
f 24/83/21 25/82/21 40/109/21 30/86/21
f 5/110/22 33/111/22 39/112/22 13/113/22
f 61/114/9 66/115/9 29/116/9 4/117/9
f 93/118/23 101/119/23 27/120/23 2/121/23
f 13/122/24 39/123/24 51/124/24 38/125/24
f 94/126/25 14/127/25 35/128/25 102/129/25
f 104/130/7 52/24/7 47/27/7 97/131/7
f 52/24/26 104/130/26 125/130/26 124/24/26
f 103/132/7 77/133/7 28/25/7 52/24/7
f 49/134/6 53/135/6 40/136/6 25/137/6
f 99/138/6 105/139/6 53/135/6 49/134/6
f 120/140/6 92/141/6 37/21/6 106/20/6
f 59/47/4 67/142/4 32/143/4 12/48/4
f 26/85/27 50/144/27 48/80/27 24/83/27
f 119/145/2 107/5/2 29/8/2 90/146/2
f 85/147/2 41/53/2 54/148/2 108/149/2
f 41/53/2 12/52/2 32/150/2 54/148/2
f 109/151/1 68/1/1 31/4/1 91/152/1
f 88/93/1 46/75/1 68/1/1 109/151/1
f 22/56/4 44/97/4 67/142/4 59/47/4
f 19/101/9 43/100/9 66/115/9 61/114/9
f 86/102/5 42/61/5 65/44/5 110/107/5
f 23/153/28 28/154/28 64/94/28 62/77/28
f 97/155/17 47/156/17 63/76/17 111/92/17
f 47/156/29 23/153/29 62/77/29 63/76/29
f 77/157/30 7/158/30 60/159/30 112/160/30
f 16/57/4 22/56/4 59/47/4 55/46/4
f 42/61/5 21/60/5 58/16/5 65/44/5
f 95/63/9 20/62/9 57/33/9 113/32/9
f 21/60/5 17/65/5 56/17/5 58/16/5
f 96/69/4 19/68/4 61/13/4 114/12/4
f 46/75/1 18/10/1 60/2/1 68/1/1
f 71/161/31 72/162/31 76/163/31 75/164/31
f 60/165/32 18/166/32 70/167/32 69/168/32
f 100/169/33 50/170/33 71/171/33 115/172/33
f 50/95/34 64/94/34 72/162/34 71/161/34
f 118/173/35 73/174/35 74/175/35 117/176/35
f 69/168/36 70/167/36 74/177/36 73/178/36
f 116/73/37 69/72/37 73/174/37 118/173/37
f 115/179/38 71/180/38 75/181/38 117/182/38
f 70/183/39 115/179/39 117/182/39 74/184/39
f 72/185/40 116/73/40 118/173/40 76/186/40
f 76/186/41 118/173/41 117/176/41 75/187/41
f 18/188/33 100/169/33 115/172/33 70/189/33
f 44/97/4 96/69/4 114/12/4 67/142/4
f 43/100/9 95/63/9 113/32/9 66/115/9
f 28/154/42 77/157/42 112/160/42 64/94/42
f 8/190/17 97/155/17 111/92/17 55/191/17
f 20/62/5 86/102/5 110/107/5 57/33/5
f 17/192/1 88/93/1 109/151/1 56/193/1
f 56/193/1 109/151/1 91/152/1 3/194/1
f 15/195/2 85/147/2 108/149/2 36/196/2
f 83/197/43 119/145/43 90/146/43 10/198/43
f 36/196/2 108/149/2 119/145/2 83/197/2
f 108/149/2 54/148/2 107/5/2 119/145/2
f 105/139/6 120/140/6 106/20/6 53/135/6
f 38/125/6 93/118/6 120/140/6 105/139/6
f 93/118/6 2/121/6 92/141/6 120/140/6
f 13/122/6 38/125/6 105/139/6 99/138/6
f 31/199/7 7/200/7 77/133/7 103/132/7
f 81/201/7 121/202/7 104/130/7 34/50/7
f 3/203/7 91/204/7 121/202/7 81/201/7
f 91/204/7 31/199/7 103/132/7 121/202/7
f 34/50/7 104/130/7 97/131/7 8/51/7
f 39/123/44 94/126/44 102/129/44 51/124/44
f 38/125/45 51/124/45 101/119/45 93/118/45
f 57/33/5 110/107/5 83/108/5 10/34/5
f 3/205/46 81/103/46 85/106/46 15/206/46
f 9/30/5 82/29/5 86/102/5 20/62/5
f 1/37/1 80/36/1 88/93/1 17/192/1
f 55/191/17 111/92/17 87/87/17 16/207/17
f 5/110/47 13/113/47 99/91/47 98/90/47
f 16/207/17 87/87/17 78/89/17 6/208/17
f 64/209/13 112/70/13 116/73/13 72/185/13
f 37/96/4 92/66/4 96/69/4 44/97/4
f 27/99/9 89/31/9 95/63/9 43/100/9
f 30/86/48 40/109/48 84/41/48 78/40/48
f 33/74/49 80/36/49 94/39/49 39/210/49
f 66/115/9 113/32/9 90/35/9 29/116/9
f 101/211/50 122/28/50 89/31/50 27/99/50
f 51/212/51 102/213/51 122/28/51 101/211/51
f 102/213/52 35/58/52 82/29/52 122/28/52
f 53/135/6 106/20/6 84/23/6 40/136/6
f 67/142/4 114/12/4 79/15/4 32/143/4
f 50/214/53 100/9/53 98/11/53 48/11/53
f 54/148/2 32/150/2 79/6/2 107/5/2
f 126/202/54 123/132/54 127/132/54 130/202/54
f 121/202/55 103/132/55 123/132/55 126/202/55
f 103/132/7 52/24/7 124/24/7 123/132/7
f 104/130/7 121/202/7 126/202/7 125/130/7
f 130/202/56 127/132/56 128/24/56 129/130/56
f 124/24/57 125/130/57 129/130/57 128/24/57
f 125/130/58 126/202/58 130/202/58 129/130/58
f 123/132/59 124/24/59 128/24/59 127/132/59
